# xmcd
# 
# Track frame offsets:
#     150
#     17624
#     37095
#     58113
#     77767
# 
# Disc length: 1317
# 
# Revision: 0
# Processed by: cddbd v1.5.2PL0 Copyright (c) Steve Scherf et al.
# Submitted via: BonkEnc v1.0.8
# 
DISCID=38052305
DTITLE=Sunrise Avenue - Heal Me - EP
DYEAR=2007
DGENRE=Rock
TTITLE0=Heal Me (Radio Version)
TTITLE1=Heal Me (Acoustic Version)
TTITLE2=Heal Me (Live 2007)
TTITLE3=Heal Me
TTITLE4=Nasty (Live 2007)
EXTD=
EXTT0=
EXTT1=
EXTT2=
EXTT3=
EXTT4=
PLAYORDER=
